<svg id="bedbf8d5-17f5-4a1c-b4c8-322f62355dcb" data-name="Capa 1" xmlns="http://www.w3.org/2000/svg" viewBox="0 0 193.59 158.3"><defs><style>.b59821e7-e099-48de-9ee0-0ede5f6d467e{fill:#0a1843;}.bcb77faf-3f30-44cf-83a5-3454abcb35bf{fill:#fff;}</style></defs><title>ICONOGRAFIA_GASIFY</title><polygon class="b59821e7-e099-48de-9ee0-0ede5f6d467e" points="89.01 41.96 127.79 22.8 172.04 27.54 189.95 123.01 145.19 118.04 105.88 138.42 61.66 133.45 21.38 153.84 3.48 56.38 45.75 37.48 89.01 41.96"/><path class="bcb77faf-3f30-44cf-83a5-3454abcb35bf" d="M19.16,158.33.11,54.6,45.26,34.42l43.19,4.47,38.79-19.17,47.34,5.08,19.06,101.64-47.87-5.32-39.32,20.39-44.24-5ZM6.86,58.16l16.75,91.19,37.49-19,44.21,5L144.62,115l41.63,4.63L169.51,30.29l-41.17-4.42L89.56,45,46.24,40.55Z"/><path class="bcb77faf-3f30-44cf-83a5-3454abcb35bf" d="M49.88,71.17l-4.77-5.61L26.74,43.92A25.94,25.94,0,0,1,24.87,13,22.78,22.78,0,0,1,37,4.1c7.48-2.58,14.75-2.11,21.56,2C66,10.62,70,17.37,70.65,26.05a24.67,24.67,0,0,1-3.4,14.4c-5.63,9.91-11.2,19.84-16.79,29.76Zm-3-35.2a9.17,9.17,0,1,0-10-8.26A9.28,9.28,0,0,0,46.87,36Z"/><path class="b59821e7-e099-48de-9ee0-0ede5f6d467e" d="M50.24,75.44l-3.66-4.3-3.38-4-3.28-3.87q-7.55-8.88-15.08-17.78a28.41,28.41,0,0,1-2.05-33.87A25.33,25.33,0,0,1,36.16,1.73C44.6-1.17,52.56-.42,59.82,4c8.1,4.9,12.58,12.26,13.32,21.89a27.32,27.32,0,0,1-3.72,15.83Q63.52,52.08,57.67,62.5l-5,8.94c-.12.21-.25.43-.4.67ZM45.94,5a25,25,0,0,0-8.16,1.44,20.19,20.19,0,0,0-10.82,8A23.4,23.4,0,0,0,28.65,42.3q7.53,8.89,15.08,17.77L47,63.94l2.47,2.9L53.31,60q5.88-10.41,11.77-20.82a22.17,22.17,0,0,0,3.08-13c-.62-7.93-4.29-14-10.93-18A21.49,21.49,0,0,0,45.94,5ZM46,38.51A11.86,11.86,0,0,1,34.39,28,11.74,11.74,0,0,1,45,15.21a11.67,11.67,0,0,1,2.11,23.25h0C46.75,38.49,46.4,38.51,46,38.51ZM46,20.17a5.25,5.25,0,0,0-.56,0,6.75,6.75,0,0,0-6.06,7.26,6.78,6.78,0,0,0,7.27,6h0a6.77,6.77,0,0,0,6-7.33A6.79,6.79,0,0,0,46,20.17Z"/><rect class="bcb77faf-3f30-44cf-83a5-3454abcb35bf" x="94.44" y="41.23" width="6" height="97.93" transform="translate(-14.08 18.14) rotate(-9.92)"/><path class="bcb77faf-3f30-44cf-83a5-3454abcb35bf" d="M16.39,117.55l-1-3.88a101.79,101.79,0,0,0,17.63-6.17l1.66,3.63A104.48,104.48,0,0,1,16.39,117.55Z"/><path class="bcb77faf-3f30-44cf-83a5-3454abcb35bf" d="M42.59,107.12l-2-3.48A48.27,48.27,0,0,0,54.71,92.12l3.12,2.5A52,52,0,0,1,42.59,107.12Z"/><path class="bcb77faf-3f30-44cf-83a5-3454abcb35bf" d="M63.17,87.74,60,85.3A70.43,70.43,0,0,1,73.89,71.53l2.38,3.21A66.59,66.59,0,0,0,63.17,87.74Z"/><path class="bcb77faf-3f30-44cf-83a5-3454abcb35bf" d="M83.32,70.15l-2-3.48a73.52,73.52,0,0,1,18.14-7.28l1,3.88A69.17,69.17,0,0,0,83.32,70.15Z"/><path class="bcb77faf-3f30-44cf-83a5-3454abcb35bf" d="M127.18,62.15a64.78,64.78,0,0,0-18.44-.42l-.48-4a69,69,0,0,1,19.57.45Z"/><path class="bcb77faf-3f30-44cf-83a5-3454abcb35bf" d="M153.22,70.23A185.53,185.53,0,0,0,135.42,64l1.08-3.85a186.84,186.84,0,0,1,18.19,6.37Z"/><path class="bcb77faf-3f30-44cf-83a5-3454abcb35bf" d="M179.66,79.41a146.35,146.35,0,0,1-18.37-6l1.46-3.73a139.5,139.5,0,0,0,17.86,5.84Z"/></svg>