<svg id="a2df711a-528a-4f24-bda9-0a20cf1046f9" data-name="Capa 1" xmlns="http://www.w3.org/2000/svg" viewBox="0 0 159.7 115.02"><defs><style>.bc22a309-1a2c-48e0-9680-b978c4fd5e3b{fill:#4aa3a0;}.bc22a309-1a2c-48e0-9680-b978c4fd5e3b,.bd607a8b-ec31-44db-afd0-fc772be06086{stroke:#0a1843;stroke-miterlimit:10;stroke-width:3px;}.bd607a8b-ec31-44db-afd0-fc772be06086{fill:#fff;}</style></defs><title>ICONOGRAFIA_GASIFY</title><path class="bc22a309-1a2c-48e0-9680-b978c4fd5e3b" d="M29.4,113.55a12,12,0,0,1-4.51-.89,11.85,11.85,0,0,1-6.53-6.42L2.48,68.75a12,12,0,0,1,6.36-15.7L46.33,37.18A12,12,0,0,1,62,43.54l4.82,11.38-11,4.68L51,48.22,13.52,64.1l15.89,37.46L66.86,85.67l-5.11-12L72.8,69l5.1,12a12,12,0,0,1-6.36,15.7L34.05,112.6A12,12,0,0,1,29.4,113.55Z"/><path class="bc22a309-1a2c-48e0-9680-b978c4fd5e3b" d="M130.34,113.54a12,12,0,0,1-4.65-.94L88.2,96.73A12,12,0,0,1,81.84,81l5.1-12,11,4.67-5.1,12,37.48,15.84L146.2,64.07,108.73,48.23,103.94,59.6l-11-4.68,4.82-11.38a12,12,0,0,1,15.7-6.36L150.9,53.05a12,12,0,0,1,6.36,15.7l-15.88,37.49A12,12,0,0,1,130.34,113.54Z"/><path class="bd607a8b-ec31-44db-afd0-fc772be06086" d="M79.37,29.62a4.91,4.91,0,0,1-4.91-4.91V6.45a4.91,4.91,0,1,1,9.82,0V24.71A4.91,4.91,0,0,1,79.37,29.62Z"/><path class="bd607a8b-ec31-44db-afd0-fc772be06086" d="M61.17,31.25a4.89,4.89,0,0,1-4.09-2.19L47,13.85a4.91,4.91,0,0,1,8.18-5.44l10.12,15.2a4.91,4.91,0,0,1-1.37,6.81A4.85,4.85,0,0,1,61.17,31.25Z"/><path class="bd607a8b-ec31-44db-afd0-fc772be06086" d="M97.58,31.12a4.91,4.91,0,0,1-4-7.73L104.05,8.44a4.91,4.91,0,0,1,8,5.64L101.6,29A4.92,4.92,0,0,1,97.58,31.12Z"/><path class="bd607a8b-ec31-44db-afd0-fc772be06086" d="M72.84,63H74.1v7L58.63,77a5.58,5.58,0,0,1-2.21.46,5.38,5.38,0,0,1-2.21-10.29l18.28-8.2a2.55,2.55,0,0,1,.35-.14Z"/><path class="bd607a8b-ec31-44db-afd0-fc772be06086" d="M84.34,65.57l-.88-.87,4.89-4.89,15.65,6A5.41,5.41,0,0,1,105.87,67a5.32,5.32,0,0,1-5.65,8.73l-18.49-7a2.07,2.07,0,0,1-.34-.15Z"/></svg>