<svg id="f3251efa-affc-41a6-921c-b68f201d8540" data-name="Capa 1" xmlns="http://www.w3.org/2000/svg" viewBox="0 0 61.48 61.48"><defs><style>.b7471159-e3fe-4d2b-9597-8eae23130d0f{fill:#4aa3a0;}</style></defs><title>ICONOGRAFIA_GASIFY</title><path class="b7471159-e3fe-4d2b-9597-8eae23130d0f" d="M30.74,61.48A30.74,30.74,0,1,1,61.48,30.74,30.77,30.77,0,0,1,30.74,61.48ZM30.74,4A26.74,26.74,0,1,0,57.48,30.74,26.78,26.78,0,0,0,30.74,4Z"/><circle class="b7471159-e3fe-4d2b-9597-8eae23130d0f" cx="18.76" cy="24.99" r="2.87"/><circle class="b7471159-e3fe-4d2b-9597-8eae23130d0f" cx="42.71" cy="24.99" r="2.87"/><path class="b7471159-e3fe-4d2b-9597-8eae23130d0f" d="M30.39,46a20.73,20.73,0,0,1-16.68-8.49,1.5,1.5,0,0,1,2.43-1.76,17.63,17.63,0,0,0,29.15-1,1.49,1.49,0,0,1,2.07-.46,1.51,1.51,0,0,1,.46,2.07A20.56,20.56,0,0,1,30.39,46Z"/></svg>