<svg id="ae9686ff-2674-4f9c-8fd7-081236d82fb6" data-name="Capa 1" xmlns="http://www.w3.org/2000/svg" viewBox="0 0 61.15 61.48"><defs><style>.b4b34f69-56fb-477e-b40e-b21f646fc4af{fill:#0a1843;}</style></defs><title>ICONOGRAFIA_GASIFY</title><path class="b4b34f69-56fb-477e-b40e-b21f646fc4af" d="M30.57,61.15A30.58,30.58,0,1,1,61.15,30.57,30.61,30.61,0,0,1,30.57,61.15Zm0-57.1A26.53,26.53,0,1,0,57.1,30.57,26.55,26.55,0,0,0,30.57,4.05Z"/><path class="b4b34f69-56fb-477e-b40e-b21f646fc4af" d="M18.68,29.75a4.89,4.89,0,1,1,4.88-4.89A4.89,4.89,0,0,1,18.68,29.75Zm0-5.71a.83.83,0,1,0,.83.82A.83.83,0,0,0,18.68,24Z"/><path class="b4b34f69-56fb-477e-b40e-b21f646fc4af" d="M42.47,29.75a4.89,4.89,0,1,1,4.88-4.89A4.89,4.89,0,0,1,42.47,29.75Zm0-5.71a.83.83,0,1,0,.83.82A.83.83,0,0,0,42.47,24Z"/><path class="b4b34f69-56fb-477e-b40e-b21f646fc4af" d="M30.23,46.22a21.12,21.12,0,0,1-17-8.65,2,2,0,0,1,3.27-2.39,17,17,0,0,0,28.07-.91A2,2,0,0,1,48,36.44,20.93,20.93,0,0,1,30.23,46.22Z"/></svg>