<svg id="a9278816-f7d5-45ea-be47-b5fee4afef29" data-name="Capa 1" xmlns="http://www.w3.org/2000/svg" viewBox="0 0 139.82 126.53"><defs><style>.b2dfd24f-cb32-4a94-b7eb-7e54eda90d49{fill:#bf0811;}.eabc7165-4840-49c0-a388-0413cc299eb4{fill:none;}.f5003490-6890-4759-8be2-7edf2ede2c53{fill:#87868a;}.a5c1d661-b2e1-4f6c-822e-c63fe0f9baa4{fill:#fff;}.e94189df-0a86-4743-bf58-2da03977999f{fill:#a01127;}</style></defs><title>ICONOGRAFIA_GASIFY</title><path class="b2dfd24f-cb32-4a94-b7eb-7e54eda90d49" d="M92.11,17.64V121a5.54,5.54,0,0,1-5.52,5.53H10.23A5.54,5.54,0,0,1,4.7,121V17.64a5.54,5.54,0,0,1,5.53-5.53H86.59A5.53,5.53,0,0,1,92.11,17.64ZM88.73,121V17.64a2.16,2.16,0,0,0-2.14-2.15H10.23a2.15,2.15,0,0,0-2.15,2.15V121a2.14,2.14,0,0,0,2.15,2.14H86.59A2.15,2.15,0,0,0,88.73,121Z"/><rect class="b2dfd24f-cb32-4a94-b7eb-7e54eda90d49" x="8.08" y="15.49" width="80.65" height="107.65" rx="2.15"/><path class="b2dfd24f-cb32-4a94-b7eb-7e54eda90d49" d="M91.16,10.69H4.49A4.49,4.49,0,0,1,0,6.21V4.49A4.49,4.49,0,0,1,4.49,0H91.16a4.49,4.49,0,0,1,4.49,4.49V6.21A4.49,4.49,0,0,1,91.16,10.69ZM4.49,3.38A1.13,1.13,0,0,0,3.38,4.49V6.21a1.12,1.12,0,0,0,1.11,1.1H91.16a1.11,1.11,0,0,0,1.1-1.1V4.49a1.12,1.12,0,0,0-1.1-1.11Z"/><path class="eabc7165-4840-49c0-a388-0413cc299eb4" d="M124.39,34.82v7.93a10.41,10.41,0,0,0,4.41-10.9Z"/><path class="f5003490-6890-4759-8be2-7edf2ede2c53" d="M111.58,105.23a9.2,9.2,0,0,1-6.83-2.81c-2.93-3-4.39-8.27-4.21-15.18.15-5.66-1.14-9.83-3.82-12.42a9.08,9.08,0,0,0-6.4-2.59A1.68,1.68,0,0,0,88.74,74a1.71,1.71,0,0,0,1.77,1.61,5.65,5.65,0,0,1,3.91,1.69c1.91,1.88,2.85,5.29,2.74,9.85C97,95,98.74,101.1,102.32,104.78a12.63,12.63,0,0,0,9.26,3.83c7.91,0,10.93-6.24,12.09-12.29h-3.5C118.26,105.22,113.6,105.23,111.58,105.23Z"/><path class="b2dfd24f-cb32-4a94-b7eb-7e54eda90d49" d="M139.53,22.58a1.69,1.69,0,0,0-2.35-.46L121,33V52.74h3.38v-6c9.46-5.29,8.25-13.71,7.37-16.9l7.31-4.93A1.7,1.7,0,0,0,139.53,22.58ZM124.39,42.75V34.82l4.41-3A10.41,10.41,0,0,1,124.39,42.75Z"/><path class="f5003490-6890-4759-8be2-7edf2ede2c53" d="M121,86.83a45.84,45.84,0,0,1-.84,9.49h3.5a50.32,50.32,0,0,0,.72-9.49V52.74H121Z"/><rect class="b2dfd24f-cb32-4a94-b7eb-7e54eda90d49" x="7.34" y="12.93" width="82.93" height="111.6"/><rect class="a5c1d661-b2e1-4f6c-822e-c63fe0f9baa4" x="15.86" y="23.46" width="63.94" height="26.44"/><path class="e94189df-0a86-4743-bf58-2da03977999f" d="M77.65,52.22H19.16a5.54,5.54,0,0,1-5.53-5.53V27.89a5.54,5.54,0,0,1,5.53-5.53H77.65a5.54,5.54,0,0,1,5.53,5.53v18.8A5.54,5.54,0,0,1,77.65,52.22ZM19.16,25.74A2.15,2.15,0,0,0,17,27.89v18.8a2.14,2.14,0,0,0,2.15,2.14H77.65a2.15,2.15,0,0,0,2.15-2.14V27.89a2.15,2.15,0,0,0-2.15-2.15Z"/></svg>