<svg id="f7c3f778-e04f-487e-bd1a-1a659a043d5d" data-name="Capa 1" xmlns="http://www.w3.org/2000/svg" viewBox="0 0 61.15 61.48"><defs><style>.f4e53aef-10f4-45fc-90fc-10b91c586a89{fill:#0a1843;}</style></defs><title>ICONOGRAFIA_GASIFY</title><path class="f4e53aef-10f4-45fc-90fc-10b91c586a89" d="M30.57,61.15A30.58,30.58,0,1,1,61.15,30.57,30.61,30.61,0,0,1,30.57,61.15Zm0-57.1A26.53,26.53,0,1,0,57.1,30.57,26.55,26.55,0,0,0,30.57,4.05Z"/><path class="f4e53aef-10f4-45fc-90fc-10b91c586a89" d="M30.23,46.22a21.12,21.12,0,0,1-17-8.65,2,2,0,0,1,3.27-2.39,17,17,0,0,0,28.07-.91A2,2,0,0,1,48,36.44,20.93,20.93,0,0,1,30.23,46.22Z"/><path class="f4e53aef-10f4-45fc-90fc-10b91c586a89" d="M11.78,24.54a2.08,2.08,0,0,1-1.09-.31,2,2,0,0,1-.62-2.8,9.8,9.8,0,0,1,16.19-.53A2,2,0,0,1,23,23.29a5.74,5.74,0,0,0-9.49.31A2,2,0,0,1,11.78,24.54Z"/><path class="f4e53aef-10f4-45fc-90fc-10b91c586a89" d="M36.53,24.54a2,2,0,0,1-1.09-.32,2,2,0,0,1-.62-2.79A9.79,9.79,0,0,1,51,20.9a2,2,0,0,1-3.27,2.39,5.74,5.74,0,0,0-9.49.31A2,2,0,0,1,36.53,24.54Z"/></svg>