<svg id="b8cf9003-4c5b-482a-8fbe-f1032cb31cba" data-name="Capa 1" xmlns="http://www.w3.org/2000/svg" viewBox="0 0 176.57 92.85"><defs><style>.ff057590-a1aa-4809-a7a9-03cf3af3e92f{fill:#0a1843;}.a28acb45-66a7-46e0-b9f6-babbba8c93be{fill:#4aa3a0;}</style></defs><title>ICONOGRAFIA_GASIFY</title><path class="ff057590-a1aa-4809-a7a9-03cf3af3e92f" d="M174.13,2.37a8.13,8.13,0,0,1,2.44,6.26q0,17.89,0,35.78,0,19.62,0,39.24c0,5.93-3.16,9.18-9.08,9.18l-163.93,0C1,92.85,0,91.81,0,89.26c0-2.92,0-5.83,0-8.75,0-2.46.87-3.37,3.3-3.54a7.39,7.39,0,0,0,5.15-2.16,3.65,3.65,0,0,0,0-5.28,7.2,7.2,0,0,0-4.84-2.16C.75,67.11,0,66.3,0,63.36s0-5.73,0-8.6c0-2.35.88-3.13,3.22-3.52a12.86,12.86,0,0,0,4.25-1.33c2.69-1.55,3-4.64.48-6.46A11.68,11.68,0,0,0,3.28,41.7C.94,41.27,0,40.43,0,38.05q0-4.53,0-9c0-2.26,1-3.22,3.29-3.46a12.08,12.08,0,0,0,3.46-.89A4.14,4.14,0,0,0,9.6,20.73c0-2-1.35-3.22-3-4A12.15,12.15,0,0,0,3.08,16c-2-.23-3-1.17-3-3.2C0,9.64,0,6.52,0,3.41.06,1.05,1.1,0,3.48,0H129.66l38.63,0A7.77,7.77,0,0,1,174.13,2.37ZM5.9,61.79c5.17,1.51,9.34,4.3,9.42,10.23.07,6.1-4.16,9-9.4,10.54,0,1.5-.06,3-.09,4.78,2.82-.07,5.57-.22,8.33-.22q30.17,0,60.33-.05l42.22,0h50.85c2.41,0,3.25-.82,3.25-3.26V31.49q0-11.25,0-22.48c0-2.43-.81-3.23-3.28-3.25H89.67l-45.41,0H13.94c-2.69,0-5.38,0-8.16.06a23.39,23.39,0,0,1,0,2.88C5.68,10,6.16,10.5,7.38,10.9c3.78,1.23,6.63,3.59,7.71,7.58C16.36,23.17,13.9,28.12,8.7,30,6,31,5.61,32.46,5.76,34.79c.06.93.28,1.39,1.25,1.67a11.45,11.45,0,0,1,7.61,6.37A9.26,9.26,0,0,1,9.28,55.38c-3.45,1.37-3.84,3.3-3.45,6.23A.53.53,0,0,0,5.9,61.79Z"/><path class="ff057590-a1aa-4809-a7a9-03cf3af3e92f" d="M30.88,27.66a3,3,0,0,1-3-3V12.08a3,3,0,0,1,6,0V24.66A3,3,0,0,1,30.88,27.66Z"/><path class="ff057590-a1aa-4809-a7a9-03cf3af3e92f" d="M30.88,56.93a3,3,0,0,1-3-3V41.35a3,3,0,0,1,6,0V53.93A3,3,0,0,1,30.88,56.93Z"/><path class="ff057590-a1aa-4809-a7a9-03cf3af3e92f" d="M30.88,84a3,3,0,0,1-3-3V68.44a3,3,0,0,1,6,0V81A3,3,0,0,1,30.88,84Z"/><path class="a28acb45-66a7-46e0-b9f6-babbba8c93be" d="M53.76,47.61H49.47v6.55a3.1,3.1,0,0,1-.67,2.14,2.34,2.34,0,0,1-3.38,0,3.06,3.06,0,0,1-.65-2.11V36.35a2.89,2.89,0,0,1,.72-2.21,3.22,3.22,0,0,1,2.25-.66h6a15.54,15.54,0,0,1,4.11.41,6.11,6.11,0,0,1,2.45,1.31,5.76,5.76,0,0,1,1.57,2.24,7.83,7.83,0,0,1,.54,3,6.59,6.59,0,0,1-2.18,5.37Q58.08,47.61,53.76,47.61ZM52.62,37H49.47v7.07h3.15a9.23,9.23,0,0,0,2.78-.35,3.24,3.24,0,0,0,1.69-1.13,3.41,3.41,0,0,0,.59-2.07,3.54,3.54,0,0,0-.9-2.5C56.1,37.34,54.72,37,52.62,37Z"/><path class="a28acb45-66a7-46e0-b9f6-babbba8c93be" d="M72.65,46.73H71v7.43a3.13,3.13,0,0,1-.65,2.17,2.22,2.22,0,0,1-1.69.69,2.16,2.16,0,0,1-1.74-.72,3.25,3.25,0,0,1-.61-2.14V36.35a3,3,0,0,1,.68-2.2,3,3,0,0,1,2.19-.67h7.63a23.21,23.21,0,0,1,2.7.13,6.89,6.89,0,0,1,2,.54,6.06,6.06,0,0,1,1.93,1.31,5.69,5.69,0,0,1,1.27,2,6.58,6.58,0,0,1,.43,2.39A5.75,5.75,0,0,1,83.71,44a8.37,8.37,0,0,1-4.43,2.19,8.67,8.67,0,0,1,2.39,2,19.6,19.6,0,0,1,2,2.76,20.82,20.82,0,0,1,1.39,2.63,5.26,5.26,0,0,1,.49,1.62,1.6,1.6,0,0,1-.29.91,2,2,0,0,1-.8.71,2.39,2.39,0,0,1-1.16.26A2.27,2.27,0,0,1,82,56.65a3.43,3.43,0,0,1-.92-.94c-.26-.38-.61-.94-1.06-1.67l-1.87-3.13a17.62,17.62,0,0,0-1.81-2.62,4.41,4.41,0,0,0-1.62-1.23A5.61,5.61,0,0,0,72.65,46.73ZM75.33,37H71v6.36h4.2a12,12,0,0,0,2.84-.29,3.33,3.33,0,0,0,1.76-1,2.81,2.81,0,0,0,.61-1.93,3,3,0,0,0-.49-1.7,3,3,0,0,0-1.36-1.1A9.87,9.87,0,0,0,75.33,37Z"/><path class="a28acb45-66a7-46e0-b9f6-babbba8c93be" d="M99.8,33.08A12.39,12.39,0,0,1,106,34.54a9.51,9.51,0,0,1,3.91,4.15A14.26,14.26,0,0,1,111.22,45a15.58,15.58,0,0,1-.73,4.88,10.57,10.57,0,0,1-2.18,3.81,9.6,9.6,0,0,1-3.57,2.46,14.13,14.13,0,0,1-9.71,0,9.71,9.71,0,0,1-3.59-2.48,10.51,10.51,0,0,1-2.17-3.83A15.5,15.5,0,0,1,88.54,45a15,15,0,0,1,.76-4.9,10.49,10.49,0,0,1,2.22-3.79,9.6,9.6,0,0,1,3.54-2.39A12.8,12.8,0,0,1,99.8,33.08ZM106.46,45a10.81,10.81,0,0,0-.82-4.41,6.2,6.2,0,0,0-2.34-2.82,6.53,6.53,0,0,0-3.5-.95,6.2,6.2,0,0,0-2.6.53,5.53,5.53,0,0,0-2,1.54,7.17,7.17,0,0,0-1.36,2.58,11.71,11.71,0,0,0-.5,3.53,12.08,12.08,0,0,0,.5,3.57,7.37,7.37,0,0,0,1.4,2.64,5.82,5.82,0,0,0,2.09,1.57,6.23,6.23,0,0,0,2.58.52,6.44,6.44,0,0,0,3.31-.89,6.33,6.33,0,0,0,2.4-2.79A10.78,10.78,0,0,0,106.46,45Z"/><path class="a28acb45-66a7-46e0-b9f6-babbba8c93be" d="M123.05,53.14l-3.72-14.75v16a2.89,2.89,0,0,1-.59,2,2,2,0,0,1-1.57.66,2,2,0,0,1-1.55-.65,2.9,2.9,0,0,1-.6-2V36.05a2.33,2.33,0,0,1,.79-2,3.82,3.82,0,0,1,2.13-.52h1.46a5.54,5.54,0,0,1,1.9.23,1.62,1.62,0,0,1,.88.85,13.43,13.43,0,0,1,.64,2l3.37,12.68,3.36-12.68a13.2,13.2,0,0,1,.65-2,1.59,1.59,0,0,1,.88-.85,5.46,5.46,0,0,1,1.9-.23h1.45a3.77,3.77,0,0,1,2.13.52,2.31,2.31,0,0,1,.79,2V54.37a2.89,2.89,0,0,1-.59,2,2,2,0,0,1-1.59.66,2,2,0,0,1-1.53-.66,2.89,2.89,0,0,1-.6-2v-16l-3.71,14.75c-.24,1-.44,1.66-.59,2.11a3,3,0,0,1-.85,1.22,2.45,2.45,0,0,1-1.7.55,2.63,2.63,0,0,1-1.39-.35,2.58,2.58,0,0,1-.89-.91,5.18,5.18,0,0,1-.49-1.23C123.3,54.09,123.17,53.62,123.05,53.14Z"/><path class="a28acb45-66a7-46e0-b9f6-babbba8c93be" d="M152.36,33.08a12.39,12.39,0,0,1,6.18,1.46,9.56,9.56,0,0,1,3.91,4.15A14.26,14.26,0,0,1,163.77,45a15.58,15.58,0,0,1-.72,4.88,10.72,10.72,0,0,1-2.18,3.81,9.6,9.6,0,0,1-3.57,2.46,14.13,14.13,0,0,1-9.71,0A9.62,9.62,0,0,1,144,53.67a10.51,10.51,0,0,1-2.17-3.83A15.5,15.5,0,0,1,141.1,45a15,15,0,0,1,.76-4.9,10.49,10.49,0,0,1,2.22-3.79,9.6,9.6,0,0,1,3.54-2.39A12.8,12.8,0,0,1,152.36,33.08ZM159,45a10.81,10.81,0,0,0-.82-4.41,6.16,6.16,0,0,0-2.35-2.82,6.48,6.48,0,0,0-3.49-.95,6.2,6.2,0,0,0-2.6.53,5.53,5.53,0,0,0-2,1.54,7.17,7.17,0,0,0-1.36,2.58,11.4,11.4,0,0,0-.5,3.53,11.76,11.76,0,0,0,.5,3.57,7.37,7.37,0,0,0,1.4,2.64,5.82,5.82,0,0,0,2.09,1.57,6.23,6.23,0,0,0,2.58.52,6.44,6.44,0,0,0,3.31-.89,6.33,6.33,0,0,0,2.4-2.79A10.78,10.78,0,0,0,159,45Z"/></svg>