<svg id="a2f08041-701f-413b-bd39-cb9e4eeab1ed" data-name="Capa 1" xmlns="http://www.w3.org/2000/svg" viewBox="0 0 160.99 160.99"><defs><style>.ae49b84f-15aa-4b48-ba5a-4a56553907c3{fill:#0a1843;}.b2695f5b-728b-43ed-a61e-d6f621efc140{fill:#53a9c1;}.eddd79a7-2eaa-4e2e-b0b3-186dbad38680{fill:#fff;}.b003d8f3-b538-4c1d-b379-a9466261d326{fill:#4aa3a0;}</style></defs><title>ICONOGRAFIA_GASIFY</title><rect class="ae49b84f-15aa-4b48-ba5a-4a56553907c3" width="160.99" height="160.99" rx="5.67"/><path class="b2695f5b-728b-43ed-a61e-d6f621efc140" d="M137.4,33.9a1.33,1.33,0,0,0-1.86-.36l-12.82,8.64V84.83c0,14.58-5.43,14.58-7.47,14.58a7.27,7.27,0,0,1-5.41-2.23c-2.33-2.39-3.48-6.55-3.34-12,.12-4.48-.9-7.79-3-9.85a7.2,7.2,0,0,0-5.07-2,1.33,1.33,0,0,0-1.25,1.41,1.35,1.35,0,0,0,1.4,1.27,4.5,4.5,0,0,1,3.1,1.34c1.51,1.49,2.26,4.19,2.17,7.81-.16,6.22,1.26,11.06,4.1,14a10,10,0,0,0,7.33,3c10.16,0,10.16-13,10.16-17.26V53.07c7.5-4.19,6.54-10.87,5.84-13.4L137,35.76A1.35,1.35,0,0,0,137.4,33.9Zm-12,16V43.61l3.49-2.36A8.26,8.26,0,0,1,125.41,49.89Z"/><path class="eddd79a7-2eaa-4e2e-b0b3-186dbad38680" d="M40.05,82.33a4.06,4.06,0,0,1-1-1.23A3.73,3.73,0,0,1,39.89,77a4.31,4.31,0,0,1,3.06-1,5.35,5.35,0,0,1,1.51.21,4.71,4.71,0,0,1,1.34.64,5.26,5.26,0,0,1,2.62-.64v1.23h-.5a3.57,3.57,0,0,0-1.41.23A3.73,3.73,0,0,1,47,79.49a3.6,3.6,0,0,1-1.13,2.71,4.23,4.23,0,0,1-3.06,1.08,8.36,8.36,0,0,1-1.38-.14,4.26,4.26,0,0,0-.55-.07,1.08,1.08,0,0,0-.7.22.68.68,0,0,0-.25.52.65.65,0,0,0,.43.58,5.46,5.46,0,0,0,1.3.14A15,15,0,0,1,45.6,85a3.38,3.38,0,0,1,1.77,1.11,2.55,2.55,0,0,1,.5,1.53,2.42,2.42,0,0,1-.54,1.53,3.24,3.24,0,0,1-1.62,1,7,7,0,0,1-2.26.35,9.75,9.75,0,0,1-3-.45,3.3,3.3,0,0,1-1.61-1.06,2.3,2.3,0,0,1-.56-1.48,2.28,2.28,0,0,1,.31-1.14,3.74,3.74,0,0,1,.94-1,2.34,2.34,0,0,1-.7-.63,1.32,1.32,0,0,1-.19-.69,1.52,1.52,0,0,1,.33-.94A3.6,3.6,0,0,1,40.05,82.33Zm.65,3.54a3.56,3.56,0,0,0-1,.79,1.37,1.37,0,0,0-.33.86,1.28,1.28,0,0,0,.69,1.06,5.42,5.42,0,0,0,3.07.73A5.24,5.24,0,0,0,46,88.72a1.25,1.25,0,0,0,.6-1.06c0-.51-.36-.91-1.09-1.19A19.45,19.45,0,0,0,40.7,85.87ZM42.88,82a2.94,2.94,0,0,0,2.1-.75,2.37,2.37,0,0,0,.79-1.76A2.22,2.22,0,0,0,45,77.82,2.94,2.94,0,0,0,43,77.13a3.12,3.12,0,0,0-2.17.69,2.34,2.34,0,0,0,0,3.47A3,3,0,0,0,42.88,82Z"/><path class="eddd79a7-2eaa-4e2e-b0b3-186dbad38680" d="M50.18,77.91a6.52,6.52,0,0,1,2.15-1.52,5.85,5.85,0,0,1,2.26-.48,4.08,4.08,0,0,1,2.18.56A3,3,0,0,1,58,77.88a4.75,4.75,0,0,1,.26,1.72V84a9.89,9.89,0,0,0,.3,2.47H57.14a6.55,6.55,0,0,1-.28-1.73,7.18,7.18,0,0,1-2,1.45,4.49,4.49,0,0,1-2,.49,2.91,2.91,0,0,1-2.13-.79,2.69,2.69,0,0,1-.81-2A3,3,0,0,1,50.56,82a4.06,4.06,0,0,1,1.94-1.35,43.54,43.54,0,0,1,4.36-1.09V79a1.8,1.8,0,0,0-.57-1.36A2,2,0,0,0,54.84,77a3.93,3.93,0,0,0-1.64.39,9.19,9.19,0,0,0-2,1.35Zm6.68,6V80.63c-1.56.37-2.59.64-3.08.81a3.92,3.92,0,0,0-1.74,1,2,2,0,0,0-.55,1.36A1.47,1.47,0,0,0,52,85a1.76,1.76,0,0,0,1.27.45,4.35,4.35,0,0,0,1.66-.38A9.93,9.93,0,0,0,56.86,83.92Z"/><path class="eddd79a7-2eaa-4e2e-b0b3-186dbad38680" d="M61.94,80.47a2.5,2.5,0,0,1,.17-3.74,3.79,3.79,0,0,1,2.6-.82,5.47,5.47,0,0,1,2.09.4,4.48,4.48,0,0,1,1.68,1.19l-1.07.9a4,4,0,0,0-1.23-1,3.22,3.22,0,0,0-1.45-.32,2.48,2.48,0,0,0-1.6.45,1.35,1.35,0,0,0-.54,1,1.25,1.25,0,0,0,.42.92,5,5,0,0,0,1.95.8,6.76,6.76,0,0,1,3.17,1.47,2.7,2.7,0,0,1,.82,1.9,2.78,2.78,0,0,1-1,2.13,3.81,3.81,0,0,1-2.66.88A5.48,5.48,0,0,1,63,86.21a8.25,8.25,0,0,1-2.19-1.54l1.21-.85a6.14,6.14,0,0,0,1.62,1.24,3.59,3.59,0,0,0,1.61.37A2.41,2.41,0,0,0,67,84.91a1.52,1.52,0,0,0,.59-1.2,1.27,1.27,0,0,0-.44-1,6.24,6.24,0,0,0-2.51-1.08A10.4,10.4,0,0,1,62.66,81,2.87,2.87,0,0,1,61.94,80.47Z"/><path class="eddd79a7-2eaa-4e2e-b0b3-186dbad38680" d="M72.06,72h1.41V73.7H72.06Zm0,4.11h1.41V86.46H72.06Z"/><path class="eddd79a7-2eaa-4e2e-b0b3-186dbad38680" d="M77.91,76.12V74.5a2.51,2.51,0,0,1,.77-1.91,3.09,3.09,0,0,1,2.16-.71l.74,0v1.31a6.66,6.66,0,0,0-.69,0,1.63,1.63,0,0,0-1.18.39,1.41,1.41,0,0,0-.4,1.06v1.49h2.13V77.4H79.31v9.06h-1.4V77.4H76V76.12Z"/><path class="eddd79a7-2eaa-4e2e-b0b3-186dbad38680" d="M82.38,76.12h1.45L87,84.56l3.2-8.44h1.44l-4.15,11a14.27,14.27,0,0,1-.92,2.09,2.72,2.72,0,0,1-.74.77,3.06,3.06,0,0,1-1.06.49,5.15,5.15,0,0,1-1.42.18A6.46,6.46,0,0,1,82,90.49l.36-1.34a5.43,5.43,0,0,0,1,.11,2.76,2.76,0,0,0,1.71-.43,4.09,4.09,0,0,0,1-1.89l.18-.47Z"/><path class="eddd79a7-2eaa-4e2e-b0b3-186dbad38680" d="M132.18,118.23H33.78a4.39,4.39,0,0,0-4.38,4.39v8.81a4.38,4.38,0,0,0,4.38,4.38h7a11.88,11.88,0,0,0,23.7,0h35.2a11.88,11.88,0,0,0,23.7,0h8.84a4.39,4.39,0,0,0,4.38-4.38v-8.81A4.39,4.39,0,0,0,132.18,118.23ZM61.76,135.81a9.21,9.21,0,0,1-18.33,0c0-.29,0-.57,0-.86a9.06,9.06,0,0,1,.18-1.82,9.21,9.21,0,0,1,18,0A9.85,9.85,0,0,1,61.8,135C61.8,135.24,61.78,135.52,61.76,135.81Zm49.73,8.34a9.21,9.21,0,0,1-9.16-8.34,8.27,8.27,0,0,1,0-.86,9.85,9.85,0,0,1,.18-1.82,9.21,9.21,0,0,1,18.05,0,9.06,9.06,0,0,1,.18,1.82c0,.29,0,.57,0,.86A9.22,9.22,0,0,1,111.49,144.15Zm22.39-12.72a1.71,1.71,0,0,1-1.7,1.7h-9a11.88,11.88,0,0,0-23.49,0H64.34a11.89,11.89,0,0,0-23.5,0H33.78a1.7,1.7,0,0,1-1.7-1.7v-8.81a1.7,1.7,0,0,1,1.7-1.7h98.4a1.7,1.7,0,0,1,1.7,1.7Z"/><path class="b003d8f3-b538-4c1d-b379-a9466261d326" d="M95.44,116.29H34.92a4.39,4.39,0,0,1-4.38-4.38V30a4.39,4.39,0,0,1,4.38-4.38H95.44A4.39,4.39,0,0,1,99.82,30v81.93A4.39,4.39,0,0,1,95.44,116.29Zm-60.52-88a1.7,1.7,0,0,0-1.7,1.7v81.93a1.7,1.7,0,0,0,1.7,1.7H95.44a1.7,1.7,0,0,0,1.7-1.7V30a1.7,1.7,0,0,0-1.7-1.7Z"/><path class="b003d8f3-b538-4c1d-b379-a9466261d326" d="M99.07,24.48H30.37a3.56,3.56,0,0,1-3.56-3.55V19.56A3.56,3.56,0,0,1,30.37,16h68.7a3.55,3.55,0,0,1,3.55,3.55v1.37A3.55,3.55,0,0,1,99.07,24.48Zm-68.7-5.79a.88.88,0,0,0-.87.87v1.37a.88.88,0,0,0,.87.87h68.7a.88.88,0,0,0,.87-.87V19.56a.88.88,0,0,0-.87-.87Z"/><path class="b003d8f3-b538-4c1d-b379-a9466261d326" d="M88.36,56.6H42a4.39,4.39,0,0,1-4.38-4.39V37.31A4.39,4.39,0,0,1,42,32.93H88.36a4.39,4.39,0,0,1,4.38,4.38v14.9A4.39,4.39,0,0,1,88.36,56.6ZM42,35.61a1.7,1.7,0,0,0-1.7,1.7v14.9a1.7,1.7,0,0,0,1.7,1.7H88.36a1.7,1.7,0,0,0,1.7-1.7V37.31a1.7,1.7,0,0,0-1.7-1.7Z"/><path class="eddd79a7-2eaa-4e2e-b0b3-186dbad38680" d="M65.64,41.56a9.41,9.41,0,0,0-2.64.38,9.29,9.29,0,0,0-4,2.36,1,1,0,1,0,1.45,1.44,7.19,7.19,0,0,1,4.34-2.08,7.3,7.3,0,0,1,4.16.75,7.53,7.53,0,0,1,1.83,1.33,1,1,0,0,0,.82.31,1,1,0,0,0,.62-1.76A9.3,9.3,0,0,0,65.64,41.56Zm-.15,3.69c-.18,0-.51,0-.83.09a5.52,5.52,0,0,0-3.07,1.6,1,1,0,1,0,1.48,1.39,3.58,3.58,0,0,1,3.32-1,3.49,3.49,0,0,1,1.82,1,1,1,0,0,0,.68.31,1,1,0,0,0,.77-1.73A5.73,5.73,0,0,0,65.49,45.25Z"/><path class="eddd79a7-2eaa-4e2e-b0b3-186dbad38680" d="M75.29,42.42a1.09,1.09,0,0,1-.05.17,1.08,1.08,0,0,1-1.78.45,11.61,11.61,0,0,0-2.07-1.63,10.52,10.52,0,0,0-4.25-1.5,10.92,10.92,0,0,0-9.3,3.1A1.08,1.08,0,0,1,56,42.46a.08.08,0,0,0,0,0v-.3a1.38,1.38,0,0,1,.37-.68A15.87,15.87,0,0,1,58,40a13.09,13.09,0,0,1,6.66-2.37l.41,0h1.09l.11,0a11.85,11.85,0,0,1,2,.26A13,13,0,0,1,75,41.48a1.72,1.72,0,0,1,.25.35,1.4,1.4,0,0,1,.09.29Z"/><path class="eddd79a7-2eaa-4e2e-b0b3-186dbad38680" d="M65.46,51.85l-.13,0a1.25,1.25,0,1,1,.53,0l-.08,0Z"/><path class="eddd79a7-2eaa-4e2e-b0b3-186dbad38680" d="M65.64,41.56a9.3,9.3,0,0,1,6.6,2.73,1,1,0,1,1-1.44,1.45A7.53,7.53,0,0,0,69,44.41a7.3,7.3,0,0,0-4.16-.75,7.19,7.19,0,0,0-4.34,2.08A1,1,0,1,1,59,44.3a9.29,9.29,0,0,1,4-2.36A9.41,9.41,0,0,1,65.64,41.56Z"/><path class="eddd79a7-2eaa-4e2e-b0b3-186dbad38680" d="M65.49,45.25a5.73,5.73,0,0,1,4.17,1.67,1,1,0,0,1-.77,1.73,1,1,0,0,1-.68-.31,3.49,3.49,0,0,0-1.82-1,3.58,3.58,0,0,0-3.32,1,1,1,0,1,1-1.48-1.39,5.52,5.52,0,0,1,3.07-1.6C65,45.28,65.31,45.27,65.49,45.25Z"/></svg>