<svg id="e8b343dd-7cda-4ff5-99b3-8a198f8afb7e" data-name="Capa 1" xmlns="http://www.w3.org/2000/svg" viewBox="0 0 61.15 61.48"><defs><style>.bd4ea3dc-b97f-4cce-baf9-b117f1f54f76{fill:#0a1843;}</style></defs><title>ICONOGRAFIA_GASIFY</title><path class="bd4ea3dc-b97f-4cce-baf9-b117f1f54f76" d="M30.57,61.15A30.58,30.58,0,1,1,61.15,30.57,30.61,30.61,0,0,1,30.57,61.15Zm0-57.1A26.53,26.53,0,1,0,57.1,30.57,26.55,26.55,0,0,0,30.57,4.05Z"/><path class="bd4ea3dc-b97f-4cce-baf9-b117f1f54f76" d="M18.68,29.75a4.89,4.89,0,1,1,4.88-4.89A4.89,4.89,0,0,1,18.68,29.75Zm0-5.71a.83.83,0,1,0,.83.82A.83.83,0,0,0,18.68,24Z"/><path class="bd4ea3dc-b97f-4cce-baf9-b117f1f54f76" d="M42.47,29.75a4.89,4.89,0,1,1,4.88-4.89A4.89,4.89,0,0,1,42.47,29.75Zm0-5.71a.83.83,0,1,0,.83.82A.83.83,0,0,0,42.47,24Z"/><path class="bd4ea3dc-b97f-4cce-baf9-b117f1f54f76" d="M14.86,46.22a2.05,2.05,0,0,1-1.08-.32,2,2,0,0,1-.62-2.8A21,21,0,0,1,47.92,42a2,2,0,1,1-3.27,2.38,17,17,0,0,0-28.07.92A2.06,2.06,0,0,1,14.86,46.22Z"/></svg>