<svg id="eddb0a4d-4bbc-4952-b064-1fb832498054" data-name="Capa 1" xmlns="http://www.w3.org/2000/svg" viewBox="0 0 61.48 61.48"><defs><style>.bd4ec993-b1c7-4cc6-982c-1ce4543d97df{fill:#4aa3a0;}</style></defs><title>ICONOGRAFIA_GASIFY</title><path class="bd4ec993-b1c7-4cc6-982c-1ce4543d97df" d="M30.74,61.48A30.74,30.74,0,1,1,61.48,30.74,30.77,30.77,0,0,1,30.74,61.48ZM30.74,4A26.74,26.74,0,1,0,57.48,30.74,26.78,26.78,0,0,0,30.74,4Z"/><path class="bd4ec993-b1c7-4cc6-982c-1ce4543d97df" d="M30.9,46.46A20.7,20.7,0,0,1,14.23,38a1.5,1.5,0,1,1,2.42-1.76,17.63,17.63,0,0,0,29.15-1,1.5,1.5,0,0,1,2.53,1.61A20.56,20.56,0,0,1,30.9,46.46Z"/><path class="bd4ec993-b1c7-4cc6-982c-1ce4543d97df" d="M12.33,24.64a1.47,1.47,0,0,1-.8-.24,1.5,1.5,0,0,1-.47-2.07,9.33,9.33,0,0,1,15.41-.5A1.5,1.5,0,0,1,24,23.6a6.31,6.31,0,0,0-10.44.34A1.51,1.51,0,0,1,12.33,24.64Z"/><path class="bd4ec993-b1c7-4cc6-982c-1ce4543d97df" d="M37.24,24.64A1.51,1.51,0,0,1,36,22.33a9.32,9.32,0,0,1,15.4-.5A1.5,1.5,0,1,1,49,23.6a6.32,6.32,0,0,0-10.45.34A1.51,1.51,0,0,1,37.24,24.64Z"/></svg>