<svg id="ef563b13-0472-4fc9-a76c-d0d881c0466e" data-name="Capa 1" xmlns="http://www.w3.org/2000/svg" viewBox="0 0 61.48 61.48"><defs><style>.be5d0b7a-8c93-413d-b9de-3eb073e714e5{fill:#0a1843;}</style></defs><title>ICONOGRAFIA_GASIFY</title><path class="be5d0b7a-8c93-413d-b9de-3eb073e714e5" d="M30.74,61.48A30.74,30.74,0,1,1,61.48,30.74,30.77,30.77,0,0,1,30.74,61.48Zm0-57.41A26.67,26.67,0,1,0,57.4,30.74,26.71,26.71,0,0,0,30.74,4.07Z"/><path class="be5d0b7a-8c93-413d-b9de-3eb073e714e5" d="M18.78,29.91A4.91,4.91,0,1,1,23.69,25,4.92,4.92,0,0,1,18.78,29.91Zm0-5.75A.84.84,0,0,0,18,25a.83.83,0,0,0,1.66,0A.84.84,0,0,0,18.78,24.16Z"/><path class="be5d0b7a-8c93-413d-b9de-3eb073e714e5" d="M42.7,29.91A4.91,4.91,0,1,1,47.61,25,4.92,4.92,0,0,1,42.7,29.91Zm0-5.75a.85.85,0,0,0-.84.84.84.84,0,0,0,.84.83.83.83,0,0,0,.83-.83A.84.84,0,0,0,42.7,24.16Z"/><path class="be5d0b7a-8c93-413d-b9de-3eb073e714e5" d="M30.73,48.68l-6.32-8.14-6.32,8.14L10.15,38.46A2,2,0,0,1,13.37,36L18.09,42l6.32-8.15L30.73,42l6.32-8.15L43.38,42,48.11,36a2,2,0,0,1,3.21,2.5L43.38,48.68l-6.32-8.15Z"/></svg>