<svg id="a9067806-fed6-48b8-af85-4d717cdcc1c6" data-name="Capa 1" xmlns="http://www.w3.org/2000/svg" viewBox="0 0 61.15 61.48"><defs><style>.aebab500-1ab6-44f3-9876-cc9b451bdd89{fill:#0a1843;}</style></defs><title>ICONOGRAFIA_GASIFY</title><path class="aebab500-1ab6-44f3-9876-cc9b451bdd89" d="M30.57,61.15A30.58,30.58,0,1,1,61.15,30.57,30.61,30.61,0,0,1,30.57,61.15Zm0-57.1A26.53,26.53,0,1,0,57.1,30.57,26.55,26.55,0,0,0,30.57,4.05Z"/><path class="aebab500-1ab6-44f3-9876-cc9b451bdd89" d="M18.68,29.75a4.89,4.89,0,1,1,4.88-4.89A4.89,4.89,0,0,1,18.68,29.75Zm0-5.71a.83.83,0,1,0,.83.82A.83.83,0,0,0,18.68,24Z"/><path class="aebab500-1ab6-44f3-9876-cc9b451bdd89" d="M42.47,29.75a4.89,4.89,0,1,1,4.88-4.89A4.89,4.89,0,0,1,42.47,29.75Zm0-5.71a.83.83,0,1,0,.83.82A.83.83,0,0,0,42.47,24Z"/><path class="aebab500-1ab6-44f3-9876-cc9b451bdd89" d="M41.06,41.8h-21a2,2,0,1,1,0-4h21a2,2,0,1,1,0,4Z"/></svg>