<svg id="fa14e1c5-bd8a-4655-b905-f1473f63c88f" data-name="Capa 1" xmlns="http://www.w3.org/2000/svg" viewBox="0 0 61.48 61.48"><defs><style>.abbd5a06-f7b3-4840-b30a-b7df9c907272{fill:#4aa3a0;}</style></defs><title>ICONOGRAFIA_GASIFY</title><path class="abbd5a06-f7b3-4840-b30a-b7df9c907272" d="M30.74,61.48A30.74,30.74,0,1,1,61.48,30.74,30.77,30.77,0,0,1,30.74,61.48ZM30.74,4A26.74,26.74,0,1,0,57.48,30.74,26.78,26.78,0,0,0,30.74,4Z"/><circle class="abbd5a06-f7b3-4840-b30a-b7df9c907272" cx="18.76" cy="24.99" r="2.87"/><circle class="abbd5a06-f7b3-4840-b30a-b7df9c907272" cx="42.71" cy="24.99" r="2.87"/><path class="abbd5a06-f7b3-4840-b30a-b7df9c907272" d="M14.92,46a1.51,1.51,0,0,1-1.26-2.31,20.63,20.63,0,0,1,34.1-1.11,1.5,1.5,0,1,1-2.42,1.77,17.63,17.63,0,0,0-29.15,1A1.49,1.49,0,0,1,14.92,46Z"/></svg>